<svg viewBox="0 0 176 32"><path fill-rule="evenodd" d="M9.454 18.914c.88.88.88 2.2 0 3.08l-.77.769c-.879.88-2.198.88-3.078 0L.66 17.814c-.88-.88-.88-2.199 0-3.079l.77-.77c.879-.88 2.198-.88 3.077 0l4.947 4.95zm-.55-9.457c-.879-.88-2.198-.88-3.078 0l-.77.77c-.879.88-.879 2.2 0 3.079l4.948 4.948c.88.88 2.198.88 3.078 0l.77-.77c.879-.88.879-2.199 0-3.079L8.903 9.457zm13.192 4.399c-.88-.88-2.198-.88-3.078 0l-.77.77c-.879.88-.879 2.199 0 3.078l4.948 4.949c.879.88 2.198.88 3.078 0l.77-.77c.879-.88.879-2.2 0-3.079l-4.948-4.948zm4.507-4.509c-.88-.88-2.198-.88-3.078 0l-.77.77c-.879.88-.879 2.2 0 3.079l4.948 4.948c.88.88 2.198.88 3.078 0l.77-.77c.879-.88.879-2.199 0-3.078l-4.948-4.949zM18.36 4.51c.879-.88.879-2.2 0-3.08l-.77-.77c-.88-.879-2.199-.879-3.078 0L9.564 5.61c-.88.879-.88 2.199 0 3.078l.77.77c.879.88 2.198.88 3.078 0l4.947-4.948zm4.397 4.398c.88-.88.88-2.2 0-3.079l-.77-.77c-.88-.88-2.198-.88-3.078 0l-4.947 4.949c-.88.88-.88 2.2 0 3.079l.77.77c.88.88 2.198.88 3.078 0l4.947-4.949zM18.36 21.884c.879-.88.879-2.2 0-3.079l-.77-.77c-.88-.88-2.199-.88-3.078 0l-4.947 4.949c-.88.88-.88 2.2 0 3.079l.77.77c.879.88 2.198.88 3.078 0l4.947-4.949zm4.397 4.399c.88-.88.88-2.2 0-3.08l-.77-.769c-.88-.88-2.198-.88-3.078 0l-4.837 5.058c-.88.88-.88 2.2 0 3.08l.77.77c.88.879 2.198.879 3.078 0l4.837-5.06zm36.057-4.289c.11.22.77 1.21.77 1.21-.33 1.54-1.32 3.629-1.32 3.629l-.11.11c-3.627 1.43-9.344 2.639-15.39.22-3.627-1.43-6.266-4.29-7.255-8.028-1.1-3.849-.33-8.027 2.089-11.326 2.638-3.52 6.815-5.499 12.532-5.829 2.198-.11 6.596.44 9.014 1.87h.22s.11 6.048 0 6.268l-.11.33-1.759.11-.11-.66c-.33-1.76-1.1-6.378-7.585-6.048-2.748.11-5.057 1.54-6.706 3.739-2.089 2.749-2.638 6.378-1.759 10.556.88 3.96 3.958 6.488 6.266 7.478.99.33 4.068 1.1 6.376 0 1.979-.99 3.958-2.53 4.837-3.629zm22.206 6.378V7.588c0-.66 0-1.76-.66-2.53-.11-.11-1.099-.88-1.099-.88V3.3l5.607-1.1.55.33v22.323c.11 2.09 1.539 2.31 1.539 2.31v1.32l-5.937-.11zm24.735-1.43c-.99-.22-1.54-1.1-1.54-2.529V11.216l-.439-.22-5.606 1.1v.88s.989.77 1.099.88c.66.77.66 1.87.66 2.529v7.807c-1.87 1.43-3.518 1.87-4.728 1.32-.879-.44-1.429-1.54-1.429-3.079V11.216l-.44-.22-5.606 1.1v.88s.99.77 1.1.88c.769.77.769 1.87.66 2.529v6.708c0 1.32.109 1.76.219 2.31.33 1.429 1.21 2.418 2.418 2.858 1.98.77 4.837 0 7.806-1.98v1.87h6.156v-1.21h-.33zm27.922 0c-.989-.22-1.429-1.1-1.539-2.529v-8.027c0-1.87-.989-5.388-4.617-5.388-2.748 0-4.507 1.649-5.496 2.529-.55-1.21-1.76-2.53-3.958-2.53-1.759 0-3.298.66-4.837 1.98v-1.65l-.55-.33-5.606 1.1v.88s.99.77 1.1.88c.659.77.659 1.87.659 2.529V28.15h6.156v-1.21l-.33-.11c-.989-.22-1.429-.99-1.429-2.529v-9.457c1.1-.88 2.199-1.1 3.298-.99.88.11 1.869.77 1.869 4.07V28.04h6.046v-1.21l-.33-.11c-.989-.22-1.429-.989-1.539-2.529v-8.027c0-.22 0-.88-.11-1.32 1.1-.99 2.2-1.1 3.298-.99.88.11 1.87.77 1.87 4.07V28.04h6.045v-1.21.11zm-54.635-7.257c0-2.53-.88-4.839-2.419-6.378-1.649-1.65-3.957-2.53-6.816-2.53-5.276 0-9.234 3.85-9.234 8.908 0 5.388 3.628 8.907 9.234 8.907 2.639 0 5.057-.88 6.706-2.53 1.65-1.759 2.529-3.958 2.529-6.377zm-9.235 6.928c-3.407 0-4.397-2.64-4.397-7.038 0-3.19.99-7.038 4.397-7.038 3.408 0 4.398 3.849 4.398 7.038 0 4.399-.99 7.038-4.398 7.038zm84.538-21.004c0-1.21.989-2.309 2.308-2.309 1.21 0 2.309.99 2.309 2.31 0 1.319-.99 2.309-2.309 2.309-1.32 0-2.308-1.1-2.308-2.31zm.22 22.543V16.275c0-.66 0-1.76-.66-2.53-.11-.11-1.1-.879-1.1-.879v-.88l5.607-1.1.55.33v13.196c0 1.43.55 2.31 1.429 2.53l.33.11v1.21l-6.157-.11zm-3.189-13.086c-1.209-2.09-2.748-3.409-4.617-3.849-2.638-.66-5.276.55-6.925 1.43V2.419l-.55-.33-5.607 1.1v.88s.99.77 1.1.88c.66.77.66 1.759.66 2.529v19.464l.22.11c3.187 1.649 7.365 1.869 10.443.66 3.408-1.43 4.947-3.85 5.496-5.609 1.1-2.749.66-5.498-.22-7.038zm-4.617 9.237c-.99 1.65-2.968 2.64-4.507 2.2-1.539-.44-2.418-2.09-2.418-4.619v-7.148s.11 0 .22-.11c.989-.44 2.748-1.43 5.056-.22 1.21.66 2.199 1.87 2.639 3.41.55 2.089.22 4.398-.99 6.487zm29.132 2.09l-.33-.11c-.22 0-.66-.66-.66-1.65v-7.807c0-2.31-.769-4.069-2.088-4.949-1.21-.88-2.858-.99-4.837-.33-2.309.77-5.716 3.74-6.266 4.399l-.11.11v.22c0 .22.33.55.44.77l.11.11h3.847v-1.1c0-1.54.99-2.31 1.87-2.42.879-.11 1.428-.11 1.868.22.55.44.88 1.54.88 3.3v.99l-8.026 3.518-.11.11v.11c-.77 2.2-.55 3.959.44 5.169 1.65 1.869 5.717 2.089 11.653.77.44-.11 1.429-.22 1.429-.22-.11-.11-.11-1.21-.11-1.21zm-5.167-6.488v6.048c-1.319.88-2.638.99-3.627.22-.99-.88-1.21-2.42-.55-3.959l4.177-2.31z"></path></svg>